<svg width="16" height="16" viewBox="0 0 16 16" fill="none" xmlns="http://www.w3.org/2000/svg">
<g clip-path="url(#clip0_547_16020)">
<path d="M14.1666 16L1.83337 16C0.822021 16 0 15.178 0 14.1666L0 3.16663C0 2.15527 0.822021 1.33337 1.83337 1.33337L14.1666 1.33337C15.178 1.33337 16 2.15527 16 3.16663L16 14.1666C16 15.178 15.178 16 14.1666 16ZM1.83337 2.33337C1.37402 2.33337 1 2.70728 1 3.16663L1 14.1666C1 14.626 1.37402 15 1.83337 15L14.1666 15C14.626 15 15 14.626 15 14.1666L15 3.16663C15 2.70728 14.626 2.33337 14.1666 2.33337L1.83337 2.33337Z" fill="#767E85"/>
<path d="M15.5 6.33337L0.5 6.33337C0.223999 6.33337 0 6.10938 0 5.83337C0 5.55737 0.223999 5.33337 0.5 5.33337L15.5 5.33337C15.776 5.33337 16 5.55737 16 5.83337C16 6.10937 15.776 6.33337 15.5 6.33337Z" fill="#767E85"/>
<path d="M3.8335 4C3.5575 4 3.3335 3.776 3.3335 3.5L3.3335 0.5C3.3335 0.223999 3.5575 0 3.8335 0C4.1095 0 4.3335 0.223999 4.3335 0.5V3.5C4.3335 3.776 4.1095 4 3.8335 4Z" fill="#767E85"/>
<path d="M12.1665 4C11.8905 4 11.6665 3.776 11.6665 3.5V0.5C11.6665 0.223999 11.8905 0 12.1665 0C12.4425 0 12.6665 0.223999 12.6665 0.5V3.5C12.6665 3.776 12.4425 4 12.1665 4Z" fill="#767E85"/>
</g>
<defs>
<clipPath id="clip0_547_16020">
<rect width="16" height="16" fill="white"/>
</clipPath>
</defs>
</svg>
