<svg width="24" height="24" viewBox="0 0 24 24" fill="none" xmlns="http://www.w3.org/2000/svg">
<path fill-rule="evenodd" clip-rule="evenodd" d="M20.7703 4.33877C21.0765 4.0325 21.0765 3.53596 20.7703 3.2297C20.464 2.92343 19.9675 2.92343 19.6612 3.2297L12 10.8909L4.33884 3.22973C4.03258 2.92347 3.53603 2.92347 3.22977 3.22973C2.92351 3.53599 2.92351 4.03254 3.22977 4.3388L10.8909 12L3.2297 19.6612C2.92343 19.9675 2.92343 20.464 3.2297 20.7703C3.53596 21.0765 4.0325 21.0765 4.33877 20.7703L12 13.109L19.6613 20.7703C19.9675 21.0766 20.4641 21.0766 20.7703 20.7703C21.0766 20.464 21.0766 19.9675 20.7703 19.6612L13.1091 12L20.7703 4.33877Z" fill="#9598A3"/>
</svg>
