<svg width="24" height="24" viewBox="0 0 24 24" fill="none" xmlns="http://www.w3.org/2000/svg">
<path d="M9.79785 20.8601V15.0601H14.3047V20.8601" stroke="#0DB9E9" stroke-width="1.5" stroke-linecap="round" stroke-linejoin="round"/>
<path d="M3 20.8601H20.8601" stroke="#0DB9E9" stroke-width="1.5" stroke-linecap="round"/>
<path d="M18.6729 20.8601V5.4541H5.05176V20.8601" stroke="#0DB9E9" stroke-width="1.5" stroke-linecap="round" stroke-linejoin="round"/>
<path d="M6.88867 5.45401V3H12.2439V5.45401" stroke="#0DB9E9" stroke-width="1.5" stroke-linecap="round" stroke-linejoin="round"/>
<path d="M8.19385 9.09399V8.09399M7.44385 8.34399H9.44385H7.44385ZM8.69385 8.09399V9.09399V8.09399ZM9.44385 8.84399H7.44385H9.44385Z" stroke="#0DB9E9" stroke-width="1.5"/>
<path d="M15.167 9.09399V8.09399M14.417 8.34399H16.417H14.417ZM15.667 8.09399V9.09399V8.09399ZM16.417 8.84399H14.417H16.417Z" stroke="#0DB9E9" stroke-width="1.5"/>
<path d="M8.19385 12.21V11.21M7.44385 11.46H9.44385H7.44385ZM8.69385 11.21V12.21V11.21ZM9.44385 11.96H7.44385H9.44385Z" stroke="#0DB9E9" stroke-width="1.5"/>
<path d="M15.167 12.21V11.21M14.417 11.46H16.417H14.417ZM15.667 11.21V12.21V11.21ZM16.417 11.96H14.417H16.417Z" stroke="#0DB9E9" stroke-width="1.5"/>
</svg>
