<svg width="160" height="160" viewBox="0 0 160 160" fill="none" xmlns="http://www.w3.org/2000/svg">
<circle cx="80" cy="80" r="80" fill="#FFF0F2"/>
<rect x="29" y="48" width="101" height="64" rx="4" fill="white"/>
<rect x="81" y="71" width="41" height="5" rx="2.5" fill="#F99BAB"/>
<path d="M56 63C52.6377 63 49.3509 63.997 46.5553 65.865C43.7597 67.733 41.5807 70.388 40.2941 73.4944C39.0074 76.6007 38.6707 80.0189 39.3267 83.3165C39.9826 86.6142 41.6017 89.6433 43.9792 92.0208C46.3567 94.3983 49.3858 96.0174 52.6835 96.6733C55.9811 97.3293 59.3993 96.9926 62.5056 95.7059C65.612 94.4193 68.267 92.2403 70.135 89.4447C72.003 86.6491 73 83.3623 73 80C72.9947 75.4929 71.2019 71.172 68.0149 67.9851C64.828 64.7981 60.507 63.0053 56 63ZM42.0909 80C42.0897 76.846 43.1666 73.7863 45.1432 71.3285L64.6715 90.8568C62.6277 92.4951 60.1623 93.5221 57.5599 93.8194C54.9575 94.1167 52.324 93.6722 49.9633 92.5372C47.6026 91.4022 45.6109 89.6229 44.218 87.4046C42.8251 85.1863 42.0877 82.6194 42.0909 80ZM66.8568 88.6715L47.3285 69.1432C49.9978 67.0034 53.3629 65.9238 56.7789 66.1113C60.1949 66.2988 63.4216 67.7402 65.8407 70.1593C68.2598 72.5784 69.7013 75.8051 69.8887 79.2211C70.0762 82.6371 68.9966 86.0022 66.8568 88.6715Z" fill="#E85E75" stroke="#E85E75" stroke-width="1.5"/>
<rect x="81" y="59" width="41" height="5" rx="2.5" fill="#F99BAB"/>
<rect x="81" y="83" width="41" height="5" rx="2.5" fill="#F99BAB"/>
<rect x="81" y="95" width="41" height="5" rx="2.5" fill="#F99BAB"/>
</svg>
