<svg width="237" height="24" viewBox="0 0 237 24" fill="none" xmlns="http://www.w3.org/2000/svg">
<path d="M4.23001 7.95772C3.03001 7.95772 2.07 8.52772 1.47 9.47272V8.13772H0V18.4727H1.47V14.5427C2.07 15.5027 3.03001 16.0727 4.23001 16.0727C6.27001 16.0727 7.80001 14.3927 7.80001 12.0077C7.80001 9.63772 6.27001 7.95772 4.23001 7.95772ZM3.87001 14.7827C2.475 14.7827 1.47 13.6277 1.47 12.0077C1.47 10.3877 2.475 9.24772 3.87001 9.24772C5.29501 9.24772 6.30001 10.3877 6.30001 12.0077C6.30001 13.6277 5.29501 14.7827 3.87001 14.7827Z" fill="#B8C1CB"/>
<path d="M13.268 16.0727C15.473 16.0727 17.333 14.2127 17.333 12.0077C17.333 9.80272 15.473 7.95772 13.268 7.95772C11.048 7.95772 9.17299 9.80272 9.17299 12.0077C9.17299 14.2127 11.048 16.0727 13.268 16.0727ZM13.268 14.7827C11.843 14.7827 10.658 13.5227 10.658 12.0077C10.658 10.5077 11.843 9.24772 13.268 9.24772C14.663 9.24772 15.848 10.5077 15.848 12.0077C15.848 13.5227 14.663 14.7827 13.268 14.7827Z" fill="#B8C1CB"/>
<path d="M20.7133 15.8927H22.0783L23.9533 10.1327L25.8133 15.8927H27.1783L29.7883 8.13772H28.2733L26.5033 13.9127L24.5833 8.13772H23.3233L21.4033 13.9127L19.6183 8.13772H18.1033L20.7133 15.8927Z" fill="#B8C1CB"/>
<path d="M34.4615 14.7527C33.1265 14.7527 32.1815 13.8227 31.9865 12.5327H38.0915C38.0915 9.75772 36.7265 7.95772 34.3565 7.95772C32.2115 7.95772 30.4865 9.66772 30.4865 11.9927C30.4865 14.3777 32.3165 16.0727 34.4765 16.0727C35.5715 16.0727 36.9215 15.6077 37.6115 14.8727L36.6815 13.9127C36.2165 14.3927 35.2715 14.7527 34.4615 14.7527ZM34.4165 9.27772C35.7515 9.27772 36.4865 10.1477 36.6515 11.3477H32.0015C32.2415 10.0877 33.2165 9.27772 34.4165 9.27772Z" fill="#B8C1CB"/>
<path d="M41.3728 9.62272V8.13772H39.8878V15.8927H41.3728V11.4827C41.5078 10.1327 42.6478 9.24772 44.2528 9.24772V7.95772C42.9178 7.95772 41.8678 8.60272 41.3728 9.62272Z" fill="#B8C1CB"/>
<path d="M49.2565 14.7527C47.9215 14.7527 46.9764 13.8227 46.7814 12.5327H52.8865C52.8865 9.75772 51.5215 7.95772 49.1515 7.95772C47.0065 7.95772 45.2814 9.66772 45.2814 11.9927C45.2814 14.3777 47.1114 16.0727 49.2715 16.0727C50.3665 16.0727 51.7165 15.6077 52.4065 14.8727L51.4765 13.9127C51.0115 14.3927 50.0665 14.7527 49.2565 14.7527ZM49.2115 9.27772C50.5465 9.27772 51.2815 10.1477 51.4465 11.3477H46.7964C47.0364 10.0877 48.0115 9.27772 49.2115 9.27772Z" fill="#B8C1CB"/>
<path d="M60.5777 5.40771V9.47272C59.9777 8.52772 59.0177 7.95772 57.8177 7.95772C55.7777 7.95772 54.2477 9.63772 54.2477 12.0077C54.2477 14.3927 55.7777 16.0727 57.8177 16.0727C59.0177 16.0727 59.9777 15.5027 60.5777 14.5427V15.8927H62.0477V5.40771H60.5777ZM58.1777 14.7827C56.7527 14.7827 55.7477 13.6277 55.7477 12.0077C55.7477 10.3877 56.7527 9.24772 58.1777 9.24772C59.5727 9.24772 60.5777 10.3877 60.5777 12.0077C60.5777 13.6277 59.5727 14.7827 58.1777 14.7827Z" fill="#B8C1CB"/>
<path d="M72.8727 7.95772C71.6727 7.95772 70.7127 8.52772 70.1127 9.47272V5.40771H68.6427V15.8927H70.1127V14.5427C70.7127 15.5027 71.6727 16.0727 72.8727 16.0727C74.9127 16.0727 76.4427 14.3927 76.4427 12.0077C76.4427 9.63772 74.9127 7.95772 72.8727 7.95772ZM72.5127 14.7827C71.1177 14.7827 70.1127 13.6277 70.1127 12.0077C70.1127 10.3877 71.1177 9.24772 72.5127 9.24772C73.9377 9.24772 74.9427 10.3877 74.9427 12.0077C74.9427 13.6277 73.9377 14.7827 72.5127 14.7827Z" fill="#B8C1CB"/>
<path d="M79.6007 18.5927C80.7107 18.5777 81.5357 17.9927 82.0907 16.5977L85.5107 8.13772H83.9657L81.6107 14.2577L79.1207 8.13772H77.5307L80.8607 15.9377L80.4707 16.7627C80.2157 17.2127 79.8857 17.3627 79.4057 17.3627C79.1057 17.3627 78.7607 17.2877 78.4607 17.1227L78.1307 18.2627C78.5357 18.4727 79.0757 18.5927 79.6007 18.5927Z" fill="#B8C1CB"/>
<path d="M136.724 11.1036V6.10107H140.251V20.2291H136.884L136.72 18.9951C136.232 19.9145 135.063 20.4042 133.518 20.4042C132.879 20.4164 132.245 20.2884 131.66 20.0293C131.075 19.7702 130.554 19.3862 130.133 18.9043C129.223 17.9095 128.773 16.6224 128.773 15.0494C128.773 13.4764 129.216 12.1892 130.133 11.1878C130.553 10.7054 131.074 10.3211 131.659 10.0619C132.244 9.80278 132.879 9.67511 133.518 9.68793C135.041 9.68793 136.217 10.213 136.724 11.1036ZM136.088 16.7708C136.304 16.541 136.472 16.2703 136.581 15.9746C136.69 15.6789 136.739 15.3643 136.724 15.0494C136.739 14.7335 136.691 14.4178 136.581 14.1209C136.472 13.8241 136.305 13.5522 136.088 13.3213C135.885 13.1106 135.641 12.9444 135.37 12.8335C135.099 12.7225 134.808 12.669 134.515 12.6766C134.222 12.6672 133.93 12.7198 133.659 12.8309C133.388 12.942 133.143 13.1091 132.94 13.3213C132.725 13.5524 132.557 13.8244 132.449 14.1212C132.34 14.418 132.291 14.7336 132.307 15.0494C132.291 15.3651 132.34 15.6807 132.451 15.9768C132.562 16.2729 132.732 16.5431 132.951 16.7708C133.157 16.9768 133.401 17.1402 133.67 17.2517C133.939 17.3632 134.228 17.4206 134.519 17.4206C134.81 17.4206 135.098 17.3632 135.367 17.2517C135.636 17.1402 135.88 16.9768 136.086 16.7708H136.088Z" fill="#B8C1CB"/>
<path d="M150.642 11.3055C151.654 12.3534 152.177 14.0084 152.022 15.9957H144.35C144.653 17.0259 145.473 17.6418 146.439 17.6418C147.294 17.6418 147.957 17.2275 148.406 16.4011L151.406 17.8523C150.908 18.6611 150.19 19.3107 149.335 19.7243C148.435 20.1731 147.442 20.401 146.437 20.389C144.977 20.4164 143.553 19.9276 142.418 19.0087C141.359 18.1314 140.694 16.7157 140.694 15.0497C140.694 13.3836 141.359 11.948 142.416 11.0618C143.552 10.145 144.975 9.65647 146.435 9.68159C148.158 9.68823 149.629 10.2576 150.642 11.3055ZM146.432 12.4443C145.947 12.425 145.469 12.5745 145.081 12.8674C144.703 13.1818 144.437 13.6112 144.325 14.0904H148.535C148.425 13.6122 148.161 13.1833 147.784 12.8697C147.397 12.5785 146.923 12.4291 146.439 12.4465L146.432 12.4443Z" fill="#B8C1CB"/>
<path d="M156.025 18.9951V23.9998H152.494V9.87177H155.859L156.025 11.1036C156.513 10.1842 157.68 9.68789 159.226 9.68789C159.866 9.67509 160.5 9.80278 161.085 10.0619C161.669 10.3211 162.19 10.7054 162.61 11.1878C163.519 12.1892 163.973 13.4763 163.972 15.0493C163.971 16.6223 163.516 17.9073 162.61 18.9043C162.189 19.3861 161.669 19.7701 161.084 20.0292C160.5 20.2884 159.866 20.4163 159.226 20.4041C157.709 20.4041 156.53 19.8879 156.025 18.9951ZM158.241 12.6766C157.947 12.6683 157.654 12.7214 157.382 12.8324C157.109 12.9434 156.863 13.1099 156.659 13.3213C156.443 13.5524 156.276 13.8244 156.167 14.1212C156.058 14.418 156.01 14.7336 156.025 15.0493C156.01 15.3641 156.058 15.6786 156.167 15.9743C156.276 16.27 156.443 16.5409 156.659 16.7708C157.078 17.188 157.645 17.4222 158.236 17.4222C158.827 17.4222 159.395 17.188 159.814 16.7708C160.026 16.5393 160.191 16.268 160.299 15.9726C160.406 15.6772 160.455 15.3634 160.441 15.0493C160.455 14.7342 160.407 14.4194 160.299 14.1229C160.192 13.8263 160.027 13.5539 159.814 13.3213C159.61 13.1105 159.366 12.9444 159.095 12.8334C158.824 12.7224 158.533 12.669 158.241 12.6766Z" fill="#B8C1CB"/>
<path d="M167.883 20.0366C167.207 19.8271 166.583 19.477 166.052 19.0093C165.52 18.5415 165.094 17.9667 164.801 17.3226C164.482 16.608 164.322 15.8322 164.334 15.0496C164.323 14.2648 164.483 13.4871 164.801 12.7698C165.419 11.3985 166.514 10.5344 167.883 10.0559C169.304 9.58619 170.839 9.58619 172.261 10.0559C173.632 10.5344 174.726 11.3985 175.351 12.7698C175.663 13.489 175.82 14.2657 175.812 15.0496C175.821 15.8313 175.664 16.6061 175.351 17.3226C175.055 17.9667 174.627 18.5413 174.095 19.0089C173.562 19.4765 172.937 19.8267 172.261 20.0366C170.839 20.5041 169.305 20.5041 167.883 20.0366ZM170.072 17.4223C170.365 17.4288 170.656 17.3742 170.927 17.262C171.197 17.1499 171.442 16.9827 171.645 16.771C171.86 16.5412 172.028 16.2705 172.137 15.9748C172.246 15.6791 172.295 15.3644 172.28 15.0496C172.295 14.7336 172.247 14.418 172.138 14.1211C172.028 13.8243 171.861 13.5524 171.645 13.3215C171.223 12.9085 170.657 12.6772 170.067 12.6772C169.477 12.6772 168.911 12.9085 168.49 13.3215C168.274 13.5526 168.107 13.8246 167.998 14.1214C167.889 14.4182 167.841 14.7338 167.856 15.0496C167.841 15.3643 167.889 15.6789 167.998 15.9746C168.107 16.2703 168.274 16.5411 168.49 16.771C168.694 16.9833 168.94 17.1508 169.212 17.2629C169.485 17.375 169.777 17.4293 170.072 17.4223Z" fill="#B8C1CB"/>
<path d="M181.902 12.989C181.866 12.7241 181.733 12.482 181.528 12.3102C181.323 12.1385 181.062 12.0495 180.794 12.0608C180.068 12.0608 179.653 12.3266 179.653 12.8052C179.653 13.2837 180.161 13.4964 180.969 13.6913C181.687 13.8664 182.277 14.0215 182.742 14.161C183.196 14.2956 183.64 14.4614 184.071 14.6573C184.424 14.8024 184.75 15.0045 185.037 15.2555C185.271 15.4841 185.452 15.7614 185.567 16.0677C185.682 16.374 185.728 16.7018 185.702 17.0279C185.617 19.2256 183.971 20.3932 180.828 20.3932C177.764 20.3932 175.98 19.199 175.896 17.0699L179.419 16.8107C179.503 17.502 180.083 17.9517 180.828 17.9517C181.572 17.9517 182.141 17.6482 182.141 17.1253C182.141 16.8484 181.949 16.6091 181.572 16.3987C181.123 16.1619 180.643 15.991 180.145 15.8913C179.602 15.754 179.162 15.6432 178.816 15.5413C178.468 15.4524 178.127 15.3391 177.795 15.2023C177.522 15.1011 177.264 14.9632 177.028 14.7924C176.43 14.3493 176.098 13.7157 176.142 12.7143C176.142 10.7204 177.872 9.68799 180.899 9.68799C183.694 9.68799 185.367 10.7824 185.451 12.8052L181.902 12.989Z" fill="#B8C1CB"/>
<path d="M186.468 8.20362C186.279 8.0167 186.128 7.79403 186.026 7.54854C185.923 7.30304 185.87 7.03961 185.87 6.77353C185.87 6.50745 185.923 6.24402 186.026 5.99853C186.128 5.75303 186.279 5.53037 186.468 5.34345C186.653 5.15126 186.876 4.99905 187.123 4.89618C187.369 4.79331 187.634 4.74196 187.901 4.74527C188.169 4.74371 188.433 4.79585 188.68 4.89861C188.927 5.00137 189.15 5.15264 189.337 5.34345C189.526 5.53037 189.677 5.75303 189.779 5.99853C189.882 6.24402 189.935 6.50745 189.935 6.77353C189.935 7.03961 189.882 7.30304 189.779 7.54854C189.677 7.79403 189.526 8.0167 189.337 8.20362C189.152 8.39747 188.929 8.55135 188.682 8.65575C188.435 8.76015 188.169 8.81287 187.901 8.81066C187.633 8.81484 187.367 8.763 187.121 8.65847C186.874 8.55394 186.651 8.39902 186.468 8.20362ZM186.136 9.86966H189.667V20.2292H186.136V9.86966Z" fill="#B8C1CB"/>
<path d="M191.5 7.57227H195.022V9.87193H197.34V12.6125H195.022V16.1794C195.022 16.7953 195.261 17.1719 195.731 17.3203C196.254 17.4731 196.808 17.4891 197.34 17.3669V20.247C196.661 20.3479 195.976 20.3968 195.29 20.3932C193.937 20.3932 192.962 20.0631 192.384 19.4007C191.805 18.7382 191.497 17.7081 191.497 16.299V12.6125H190.246V9.87193H191.497L191.5 7.57227Z" fill="#B8C1CB"/>
<path d="M203.78 12.9891C203.744 12.7241 203.611 12.482 203.406 12.3103C203.201 12.1385 202.939 12.0496 202.672 12.0608C201.946 12.0608 201.531 12.3267 201.531 12.8052C201.531 13.2837 202.039 13.4964 202.847 13.6914C203.565 13.8664 204.152 14.0215 204.62 14.1611C205.074 14.2956 205.518 14.4614 205.949 14.6573C206.302 14.8025 206.628 15.0046 206.915 15.2555C207.149 15.4841 207.33 15.7614 207.445 16.0677C207.559 16.374 207.606 16.7018 207.58 17.0279C207.495 19.2256 205.849 20.3932 202.706 20.3932C199.642 20.3932 197.858 19.199 197.774 17.07L201.297 16.8108C201.381 17.502 201.961 17.9517 202.706 17.9517C203.45 17.9517 204.019 17.6482 204.019 17.1254C204.019 16.8484 203.827 16.6092 203.45 16.3987C203.001 16.1619 202.521 15.991 202.023 15.8913C201.48 15.754 201.04 15.6432 200.694 15.5413C200.347 15.4521 200.006 15.3388 199.675 15.2023C199.396 15.101 199.133 14.9616 198.893 14.788C198.295 14.3449 197.962 13.7113 198.007 12.7099C198.007 10.716 199.735 9.68359 202.761 9.68359C205.559 9.68359 207.232 10.778 207.314 12.8008L203.78 12.9891Z" fill="#B8C1CB"/>
<path d="M208.045 20.0632C207.961 19.9846 207.895 19.8893 207.851 19.7836C207.807 19.6779 207.785 19.5641 207.788 19.4495C207.79 19.2199 207.883 19.0005 208.046 18.8388C208.209 18.6771 208.429 18.586 208.658 18.5855C208.772 18.5846 208.885 18.6064 208.991 18.6498C209.096 18.6932 209.192 18.7572 209.272 18.838C209.354 18.9167 209.419 19.0114 209.463 19.1162C209.507 19.221 209.528 19.3337 209.527 19.4473C209.529 19.5616 209.507 19.6749 209.463 19.7805C209.419 19.886 209.354 19.9815 209.272 20.061C209.192 20.1428 209.096 20.2077 208.99 20.2519C208.884 20.296 208.771 20.3185 208.656 20.318C208.542 20.3204 208.429 20.299 208.324 20.2551C208.218 20.2112 208.123 20.1459 208.045 20.0632Z" fill="#B8C1CB"/>
<path d="M215.44 17.9871L216.816 18.5654C216.521 19.109 216.072 19.5537 215.526 19.8437C214.95 20.1631 214.301 20.3273 213.643 20.32C213.007 20.3282 212.378 20.1814 211.811 19.8924C211.262 19.6086 210.802 19.1794 210.482 18.6518C210.149 18.0902 209.974 17.4498 209.974 16.7974C209.974 16.145 210.149 15.5046 210.482 14.9431C210.802 14.4154 211.262 13.9862 211.811 13.7024C212.378 13.4134 213.007 13.2666 213.643 13.2748C214.302 13.2654 214.952 13.4264 215.531 13.7423C216.076 14.0335 216.523 14.4799 216.816 15.025L215.44 15.5988C215.271 15.2704 215.012 14.9963 214.694 14.8078C214.377 14.6194 214.012 14.5242 213.643 14.5332C213.358 14.528 213.076 14.5821 212.813 14.6919C212.55 14.8017 212.313 14.965 212.117 15.1713C211.908 15.3851 211.745 15.6387 211.638 15.917C211.53 16.1953 211.48 16.4925 211.49 16.7908C211.479 17.0885 211.528 17.3853 211.636 17.663C211.744 17.9408 211.908 18.1935 212.117 18.4058C212.312 18.6149 212.548 18.7811 212.811 18.8936C213.074 19.0061 213.357 19.0626 213.643 19.0594C214.013 19.0678 214.378 18.9716 214.696 18.7819C215.014 18.5923 215.271 18.3168 215.44 17.9871Z" fill="#B8C1CB"/>
<path d="M220.916 20.3202C220.279 20.3284 219.65 20.1817 219.082 19.8926C218.534 19.6088 218.074 19.1796 217.753 18.652C217.422 18.09 217.248 17.4497 217.248 16.7976C217.248 16.1455 217.422 15.5053 217.753 14.9433C218.074 14.4157 218.534 13.9865 219.082 13.7026C219.652 13.4212 220.28 13.2749 220.915 13.2749C221.551 13.2749 222.179 13.4212 222.749 13.7026C223.301 13.9868 223.766 14.4156 224.093 14.9433C224.424 15.5053 224.599 16.1455 224.599 16.7976C224.599 17.4497 224.424 18.09 224.093 18.652C223.766 19.1797 223.301 19.6085 222.749 19.8926C222.182 20.1817 221.553 20.3284 220.916 20.3202ZM220.916 19.022C221.201 19.0274 221.483 18.9746 221.746 18.8667C222.009 18.7589 222.247 18.5984 222.445 18.395C222.848 17.9624 223.072 17.3932 223.072 16.8021C223.072 16.2109 222.848 15.6417 222.445 15.2091C222.038 14.8046 221.488 14.5776 220.914 14.5776C220.341 14.5776 219.79 14.8046 219.383 15.2091C218.977 15.6397 218.75 16.2097 218.75 16.8021C218.75 17.3944 218.977 17.9644 219.383 18.395C219.583 18.599 219.823 18.7599 220.087 18.8678C220.352 18.9756 220.635 19.0281 220.921 19.022H220.916Z" fill="#B8C1CB"/>
<path d="M236.298 14.2185C236.682 14.8499 236.846 15.6741 236.846 16.7995V20.2291H235.324V16.7995C235.324 15.3462 234.854 14.5841 233.74 14.5841C233.478 14.5701 233.217 14.6178 232.977 14.7232C232.737 14.8287 232.526 14.9889 232.359 15.1911C232.012 15.6573 231.837 16.2298 231.865 16.8106V20.2291H230.337V16.7995C230.337 15.3462 229.867 14.5841 228.755 14.5841C228.493 14.5698 228.231 14.6173 227.991 14.7227C227.751 14.8282 227.539 14.9886 227.372 15.1911C227.025 15.653 226.849 16.2219 226.876 16.7995V20.2291H225.354V13.3722H226.81L226.876 14.4556C227.29 13.6336 228.059 13.2681 229.293 13.2681C230.453 13.2681 231.214 13.7614 231.577 14.748C232.02 13.7931 232.953 13.2681 234.287 13.2681C235.233 13.2681 235.909 13.5915 236.298 14.2185Z" fill="#B8C1CB"/>
<path d="M121.836 15.9244H111.645C111.464 16.1913 111.241 16.427 110.985 16.6222C110.48 17.0082 109.892 17.2707 109.268 17.3888V17.5372H119.599L120.252 18.8665H95.7512L96.387 17.5372H106.798V17.3356C106.24 17.1974 105.714 16.9553 105.247 16.6222C104.966 16.4195 104.711 16.1837 104.487 15.9199H94.1693L91.5107 20.0341H124.497L121.836 15.9244Z" fill="#B8C1CB"/>
<path d="M120.254 12.2602C120.255 13.0967 120.17 13.9311 120.002 14.7504C119.92 15.1469 119.818 15.5388 119.696 15.9246C119.623 16.1617 119.541 16.3965 119.452 16.6269C119.332 16.9371 119.204 17.2428 119.06 17.5419C118.841 17.9992 118.596 18.4431 118.324 18.8712H109.268V17.3935C109.892 17.2741 110.48 17.01 110.985 16.6225C111.238 16.4252 111.458 16.188 111.636 15.9202C111.868 15.5661 112.019 15.1652 112.079 14.746C112.104 14.5796 112.116 14.4114 112.114 14.2431C112.114 12.7808 111.273 11.7506 109.412 11.1126L108.127 10.7182C107.524 10.5122 107.265 10.3039 107.265 10.0137C107.265 9.6681 107.593 9.4953 108.073 9.4953C108.738 9.4953 109.33 9.8542 109.81 10.5632L111.773 9.0655C111.532 8.56169 111.181 8.11818 110.747 7.76743C110.312 7.41668 109.804 7.16757 109.261 7.03834V4.9713H106.797V7.07157C105.333 7.48365 104.387 8.56701 104.387 9.99378C104.387 11.4205 105.333 12.5194 107.045 13.1242L108.198 13.5053C108.94 13.7623 109.234 13.9329 109.234 14.2962C109.232 14.3882 109.206 14.478 109.157 14.556C109.108 14.634 109.039 14.6973 108.957 14.7393C108.714 14.8617 108.443 14.9189 108.171 14.9055C107.854 14.912 107.538 14.8594 107.24 14.7504C106.658 14.5129 106.168 14.0952 105.84 13.5585L104.274 14.7504L103.88 15.0517C104.042 15.364 104.24 15.6568 104.469 15.9246C104.694 16.187 104.95 16.4213 105.231 16.6225C105.699 16.9556 106.225 17.1976 106.782 17.3359V18.8579H97.6829C97.4099 18.4308 97.1642 17.9868 96.9473 17.5286C96.8033 17.2295 96.6726 16.9238 96.5552 16.6136C96.4666 16.3921 96.3846 16.1484 96.3115 15.9113C96.1891 15.5255 96.087 15.1336 96.0058 14.7371C95.6579 13.0581 95.6663 11.3248 96.0305 9.64933C96.3947 7.97383 97.1065 6.39342 98.12 5.01033C99.1334 3.62725 100.426 2.47228 101.914 1.62014C103.402 0.768 105.052 0.23766 106.758 0.0634219C108.463 -0.110816 110.187 0.0749291 111.816 0.608643C113.446 1.14236 114.945 2.01215 116.217 3.16178C117.489 4.3114 118.506 5.71525 119.201 7.28252C119.897 8.84979 120.255 10.5456 120.254 12.2602Z" fill="#B8C1CB"/>
</svg>
