<svg width="22" height="18" viewBox="0 0 22 18" fill="none" xmlns="http://www.w3.org/2000/svg">
<path d="M18.635 17.385C18.8339 17.385 19.0247 17.306 19.1653 17.1653C19.306 17.0247 19.385 16.8339 19.385 16.635V14.3025C19.9925 14.1396 20.5293 13.7808 20.9121 13.2818C21.2949 12.7828 21.5024 12.1714 21.5024 11.5425C21.5024 10.9135 21.2949 10.3022 20.9121 9.80316C20.5293 9.30415 19.9925 8.94539 19.385 8.78249V1.36499C19.385 1.16608 19.306 0.975312 19.1653 0.83466C19.0247 0.694008 18.8339 0.61499 18.635 0.61499C18.4361 0.61499 18.2453 0.694008 18.1047 0.83466C17.964 0.975312 17.885 1.16608 17.885 1.36499V8.78999C17.2775 8.95289 16.7407 9.31165 16.3579 9.81066C15.9751 10.3097 15.7676 10.921 15.7676 11.55C15.7676 12.1789 15.9751 12.7903 16.3579 13.2893C16.7407 13.7883 17.2775 14.1471 17.885 14.31V16.6425C17.887 16.8401 17.9669 17.029 18.1073 17.168C18.2478 17.307 18.4374 17.385 18.635 17.385ZM17.2625 11.5425C17.2625 11.271 17.343 11.0057 17.4938 10.78C17.6446 10.5543 17.859 10.3784 18.1098 10.2745C18.3606 10.1706 18.6365 10.1434 18.9028 10.1964C19.169 10.2493 19.4136 10.38 19.6055 10.572C19.7975 10.7639 19.9282 11.0085 19.9811 11.2747C20.0341 11.541 20.0069 11.8169 19.903 12.0677C19.7992 12.3185 19.6232 12.5329 19.3975 12.6837C19.1718 12.8345 18.9065 12.915 18.635 12.915C18.271 12.915 17.9219 12.7704 17.6645 12.513C17.4071 12.2556 17.2625 11.9065 17.2625 11.5425Z" fill="black"/>
<path d="M10.9999 17.385C11.1989 17.385 11.3896 17.3059 11.5303 17.1653C11.6709 17.0246 11.7499 16.8339 11.7499 16.635V6.23996C12.4221 6.05816 13.0053 5.6384 13.3912 5.05875C13.777 4.47911 13.9391 3.77905 13.8474 3.08881C13.7557 2.39857 13.4164 1.76513 12.8926 1.30633C12.3689 0.847529 11.6963 0.594604 10.9999 0.594604C10.3036 0.594604 9.63103 0.847529 9.10725 1.30633C8.58347 1.76513 8.24417 2.39857 8.15247 3.08881C8.06077 3.77905 8.22291 4.47911 8.60873 5.05875C8.99456 5.6384 9.57779 6.05816 10.2499 6.23996V16.635C10.2499 16.8339 10.329 17.0246 10.4696 17.1653C10.6103 17.3059 10.801 17.385 10.9999 17.385ZM9.62745 3.48746C9.62596 3.2157 9.70519 2.9496 9.8551 2.72291C10.005 2.49622 10.2188 2.31914 10.4695 2.21411C10.7202 2.10907 10.9964 2.08082 11.2631 2.13293C11.5298 2.18504 11.7751 2.31516 11.9678 2.50681C12.1605 2.69845 12.2919 2.94299 12.3455 3.20943C12.3991 3.47588 12.3723 3.75222 12.2687 4.00345C12.165 4.25468 11.9891 4.46948 11.7632 4.62063C11.5374 4.77177 11.2717 4.85246 10.9999 4.85247C10.6372 4.85247 10.2893 4.7089 10.0321 4.45312C9.77491 4.19735 9.62943 3.85017 9.62745 3.48746Z" fill="black"/>
<path d="M2.61499 11.76V16.635C2.61499 16.8339 2.69401 17.0247 2.83466 17.1653C2.97531 17.306 3.16608 17.385 3.36499 17.385C3.5639 17.385 3.75467 17.306 3.89532 17.1653C4.03597 17.0247 4.11499 16.8339 4.11499 16.635V11.76C4.72247 11.5971 5.25925 11.2383 5.64208 10.7393C6.02491 10.2403 6.23242 9.62894 6.23242 8.99999C6.23242 8.37105 6.02491 7.75967 5.64208 7.26066C5.25925 6.76165 4.72247 6.40288 4.11499 6.23999V1.36499C4.11499 1.16608 4.03597 0.975312 3.89532 0.83466C3.75467 0.694008 3.5639 0.61499 3.36499 0.61499C3.16608 0.61499 2.97531 0.694008 2.83466 0.83466C2.69401 0.975312 2.61499 1.16608 2.61499 1.36499V6.23999C2.0075 6.40288 1.47073 6.76165 1.0879 7.26066C0.705062 7.75967 0.497559 8.37105 0.497559 8.99999C0.497559 9.62894 0.705062 10.2403 1.0879 10.7393C1.47073 11.2383 2.0075 11.5971 2.61499 11.76ZM3.36499 7.62749C3.63676 7.62601 3.90285 7.70524 4.12954 7.85515C4.35623 8.00505 4.53332 8.21889 4.63835 8.46954C4.74338 8.7202 4.77163 8.9964 4.71952 9.26313C4.66742 9.52986 4.53729 9.77512 4.34565 9.96782C4.154 10.1605 3.90946 10.292 3.64302 10.3455C3.37658 10.3991 3.10023 10.3724 2.849 10.2687C2.59777 10.1651 2.38297 9.98915 2.23183 9.76329C2.08068 9.53742 1.99999 9.27177 1.99999 8.99999C1.99998 8.63728 2.14355 8.28931 2.39933 8.03213C2.6551 7.77495 3.00228 7.62948 3.36499 7.62749Z" fill="black"/>
</svg>
