<svg width="26" height="24" viewBox="0 0 26 24" fill="none" xmlns="http://www.w3.org/2000/svg">
<path d="M13 1C12.724 1 12.2859 1.01932 11.8374 1.39873L1.24693 10.3599C1.11624 10.4449 1.02854 10.5819 1.0058 10.736C0.983073 10.8902 1.02778 11.0467 1.12835 11.1658C1.22893 11.2848 1.37592 11.3549 1.53162 11.3581C1.68751 11.3615 1.83716 11.2977 1.94285 11.1831L12.5333 2.22193C12.6024 2.1634 13.0085 2.08612 13 2.08612C12.972 2.08612 13.1167 2.08953 13.2292 2.12003C13.3415 2.15052 13.4506 2.20829 13.4667 2.22193L24.0571 11.1831C24.1628 11.2977 24.3125 11.3615 24.4684 11.3581C24.6241 11.3549 24.7711 11.2848 24.8716 11.1658C24.9722 11.0467 25.0169 10.8902 24.9942 10.736C24.9715 10.5819 24.8838 10.4449 24.7531 10.3599L14.1626 1.39873C13.9405 1.21083 13.7111 1.13108 13.5091 1.07634C13.3072 1.02141 13.1618 1 13 1ZM4.30172 12.217C4.15776 12.2193 4.02043 12.2786 3.92023 12.382C3.81984 12.4854 3.76491 12.6245 3.76718 12.7686V22.6375C3.76718 22.9375 4.01021 23.1806 4.31023 23.1806H21.6894C21.9894 23.1806 22.2324 22.9375 22.2324 22.6375V12.7686C22.2345 12.6232 22.1783 12.4832 22.0762 12.3796C21.9741 12.276 21.8348 12.2178 21.6894 12.2178C21.5441 12.2178 21.4047 12.276 21.3026 12.3796C21.2005 12.4832 21.1442 12.6232 21.1463 12.7686V22.0944H4.85335V12.7686C4.85562 12.6216 4.79823 12.48 4.69424 12.376C4.59044 12.2722 4.44871 12.2148 4.30172 12.217Z" fill="#8895A7" stroke="#8895A7" stroke-width="0.6"/>
</svg>
