<svg width="24" height="24" viewBox="0 0 24 24" fill="none" xmlns="http://www.w3.org/2000/svg">
<path d="M13.7559 11.5189C14.7244 10.5504 14.7244 8.98018 13.7559 8.01168C12.7874 7.04318 11.2172 7.04318 10.2487 8.01168C9.28019 8.98018 9.28019 10.5504 10.2487 11.5189C11.2172 12.4874 12.7874 12.4874 13.7559 11.5189Z" stroke="#0DB9E9" stroke-width="1.49977" stroke-linecap="round" stroke-linejoin="round"/>
<path d="M12.0022 3C12.938 3.0014 13.8641 3.19009 14.7258 3.55493C15.5876 3.91978 16.3677 4.45354 17.02 5.12451C17.6724 5.79549 18.1837 6.59022 18.5242 7.46191C18.8646 8.33361 19.0272 9.26471 19.0022 10.2002C18.7372 16.5632 12.0022 20.853 12.0022 20.853" stroke="#0DB9E9" stroke-width="1.5" stroke-linecap="round" stroke-linejoin="round"/>
<path d="M5.44629 12.7202C5.53362 12.9995 5.63181 13.2727 5.74048 13.54C7.12047 16.5046 9.28613 19.0346 12.0024 20.8552" stroke="#0DB9E9" stroke-width="1.5" stroke-linecap="round" stroke-linejoin="round"/>
<path d="M12.0025 3C11.0667 3.0014 10.1406 3.19009 9.27886 3.55493C8.4171 3.91978 7.63701 4.45354 6.98467 5.12451C6.33234 5.79549 5.82071 6.59022 5.48028 7.46191C5.13985 8.33361 4.97754 9.26471 5.0025 10.2002" stroke="#0DB9E9" stroke-width="1.5" stroke-linecap="round" stroke-linejoin="round"/>
</svg>
