<svg width="105" height="104" viewBox="0 0 105 104" fill="none" xmlns="http://www.w3.org/2000/svg">
<circle cx="52.5" cy="52" r="52" fill="#E6F7FD"/>
<path d="M60.2625 34.9357H58.8011L61.2624 29.3698L61.2625 29.3698L61.2641 29.3656C61.3746 29.0817 61.3785 28.6897 61.0417 28.3953C60.805 28.1 60.3585 28.0179 59.9394 28.1074C59.9392 28.1075 59.939 28.1075 59.9387 28.1076L52.1884 29.6594L44.3358 27.9347L44.3353 27.9346C44.1214 27.8888 43.9285 27.8877 43.7464 27.9357C43.5644 27.9837 43.3998 28.0789 43.2399 28.2159L43.2323 28.2224L43.2261 28.2304C43.0128 28.5044 42.8912 28.8875 43.0099 29.1927L43.0098 29.1927L43.0117 29.1968L45.473 34.7628H44.1125C42.962 34.7628 41.9937 35.5717 41.9937 36.592V38.3212C41.9937 38.9145 42.353 39.4197 42.8088 39.7736C36.2036 43.0059 31.9 49.1337 31.9 55.7866V74.7208C31.9 75.7411 32.8683 76.55 34.0188 76.55H70.3563C71.5067 76.55 72.475 75.7411 72.475 74.7208V55.7866C72.475 49.1417 68.1809 43.0192 61.5872 39.8681C62.0098 39.5917 62.3388 39.1347 62.3774 38.5996C63.1675 38.6461 64.1749 38.7539 65.1231 38.9698C66.1167 39.1961 67.028 39.5373 67.5627 40.037L67.5626 40.037L67.5659 40.0398C67.7884 40.2304 68.1153 40.3233 68.3375 40.3233C68.5597 40.3233 68.8866 40.2304 69.1091 40.0398C69.3302 39.8504 69.4469 39.6077 69.4469 39.3587C69.4469 39.1097 69.3302 38.8669 69.1091 38.6775C68.2324 37.9266 66.9514 37.4682 65.6852 37.1754C64.459 36.8918 63.2338 36.7607 62.3787 36.6742C62.3234 35.6971 61.3787 34.9357 60.2625 34.9357ZM45.8986 30.2476L51.9646 31.5885L51.9753 31.5908H51.9862H52.4909H52.5011L52.5112 31.5887L58.574 30.3323L56.4647 34.8492H47.9131L45.8986 30.2476ZM44.2131 36.7784H60.1631V38.3076H44.2131V36.7784ZM34.1193 74.6208V55.7866C34.1193 48.9224 39.2294 42.7305 46.7659 40.4066L47.3571 40.2378H57.12L57.711 40.4065C65.1465 42.7308 70.2574 48.9227 70.2574 55.7866V74.6208H34.1193ZM52.1881 56.4642C51.1179 56.4642 50.2693 55.7169 50.2693 54.835C50.2693 53.9531 51.1179 53.2058 52.1881 53.2058C53.2582 53.2058 54.1068 53.9531 54.1068 54.835C54.1068 55.1222 54.2195 55.3666 54.4194 55.5378C54.6178 55.7078 54.8949 55.7996 55.2162 55.7996C55.5375 55.7996 55.8146 55.7078 56.0131 55.5378C56.2129 55.3666 56.3256 55.1222 56.3256 54.835C56.3256 53.1617 55.0116 51.7619 53.2975 51.382V51.3766C53.2975 51.0894 53.1848 50.845 52.9849 50.6738C52.7865 50.5038 52.5094 50.412 52.1881 50.412C51.8668 50.412 51.5897 50.5038 51.3912 50.6738C51.1914 50.845 51.0787 51.0894 51.0787 51.3766V51.3858C49.3699 51.8443 48.0506 53.1572 48.0506 54.835C48.0506 56.8063 49.9273 58.3934 52.1881 58.3934C53.2582 58.3934 54.1068 59.1407 54.1068 60.0226C54.1068 60.9045 53.2582 61.6518 52.1881 61.6518C51.1179 61.6518 50.2693 60.9045 50.2693 60.0226C50.2693 59.7354 50.1566 59.491 49.9568 59.3198C49.7584 59.1498 49.4813 59.058 49.16 59.058C48.8386 59.058 48.5616 59.1498 48.3631 59.3198C48.1633 59.491 48.0506 59.7354 48.0506 60.0226C48.0506 61.6959 49.3645 63.0958 51.0787 63.4756V63.481C51.0787 63.7682 51.1914 64.0126 51.3912 64.1838C51.5897 64.3538 51.8668 64.4456 52.1881 64.4456C52.5094 64.4456 52.7865 64.3538 52.9849 64.1838C53.1848 64.0126 53.2975 63.7682 53.2975 63.481V63.4719C55.0063 63.0133 56.3256 61.7004 56.3256 60.0226C56.3256 58.0513 54.4488 56.4642 52.1881 56.4642Z" fill="#0DB9E9" stroke="#0DB9E9" stroke-width="0.2"/>
</svg>
