<svg width="22" height="26" viewBox="0 0 22 26" fill="none" xmlns="http://www.w3.org/2000/svg">
<path d="M15 4.38517H14.3536L15.5415 1.69893L15.5416 1.69897L15.5432 1.69475C15.6028 1.54165 15.6066 1.32423 15.4225 1.16075C15.288 0.996576 15.0454 0.957804 14.8297 1.00379C14.8295 1.00384 14.8293 1.00389 14.8291 1.00393L11.0009 1.77045L7.12145 0.918387L7.12094 0.918278C7.00888 0.894281 6.90514 0.893172 6.80576 0.919363C6.70657 0.945508 6.61843 0.99709 6.53495 1.0686L6.52728 1.07516L6.52109 1.08313C6.4097 1.22625 6.33898 1.4348 6.40681 1.6091L6.40671 1.60913L6.40854 1.61327L7.59644 4.29951H7C6.40986 4.29951 5.9 4.71577 5.9 5.25608V6.11265C5.9 6.39953 6.05767 6.6434 6.26185 6.82144C3.01552 8.4384 0.9 11.4697 0.9 14.7642V24.1434C0.9 24.6837 1.40986 25.1 2 25.1H20C20.5901 25.1 21.1 24.6837 21.1 24.1434V14.7642C21.1 11.4759 18.992 8.4488 15.7545 6.87036C15.9278 6.73375 16.0611 6.53516 16.0928 6.30393C16.4746 6.32831 16.9494 6.38136 17.3966 6.48318C17.8871 6.59489 18.3272 6.76161 18.5817 6.99945L18.5817 6.99952L18.5849 7.00234C18.7056 7.10567 18.8797 7.15487 19 7.15487C19.1203 7.15487 19.2944 7.10567 19.4151 7.00234C19.5343 6.90019 19.6 6.76652 19.6 6.62659C19.6 6.48666 19.5343 6.35298 19.4151 6.25084C18.9713 5.87078 18.327 5.64151 17.6975 5.49592C17.1066 5.35925 16.5166 5.29378 16.0951 5.25085C16.0418 4.75545 15.5566 4.38517 15 4.38517ZM7.97079 2.18405L10.8787 2.82684L10.8894 2.8292H10.9003H11.1503H11.1605L11.1706 2.82712L14.0753 2.22516L13.0866 4.34234H8.91567L7.97079 2.18405ZM7.10029 5.39891H14.9003V6.05548H7.10029V5.39891ZM2.10029 24.0434V14.7642C2.10029 11.3906 4.61256 8.34017 8.32876 7.19406L8.61428 7.11253H13.4363L13.7216 7.19401C17.3878 8.34028 19.9006 11.3906 19.9006 14.7642V24.0434H2.10029ZM11.0003 15.0495C10.4904 15.0495 10.1003 14.6948 10.1003 14.2929C10.1003 13.891 10.4904 13.5363 11.0003 13.5363C11.5101 13.5363 11.9003 13.891 11.9003 14.2929C11.9003 14.4492 11.962 14.5845 12.0727 14.6793C12.182 14.773 12.3318 14.8212 12.5003 14.8212C12.6688 14.8212 12.8185 14.773 12.9278 14.6793C13.0385 14.5845 13.1003 14.4492 13.1003 14.2929C13.1003 13.4486 12.4481 12.7465 11.5991 12.542C11.5899 12.4017 11.5295 12.2804 11.4278 12.1933C11.3185 12.0997 11.1688 12.0515 11.0003 12.0515C10.8318 12.0515 10.682 12.0997 10.5727 12.1933C10.4702 12.2811 10.4096 12.4037 10.4013 12.5456C9.55742 12.7856 8.90029 13.4443 8.90029 14.2929C8.90029 15.3043 9.86014 16.106 11.0003 16.106C11.5101 16.106 11.9003 16.4607 11.9003 16.8626C11.9003 17.2645 11.5101 17.6192 11.0003 17.6192C10.4904 17.6192 10.1003 17.2645 10.1003 16.8626C10.1003 16.7063 10.0385 16.571 9.92784 16.4761C9.81853 16.3825 9.6688 16.3343 9.50029 16.3343C9.33178 16.3343 9.18204 16.3825 9.07273 16.4761C8.96204 16.571 8.90029 16.7063 8.90029 16.8626C8.90029 17.7069 9.55244 18.409 10.4015 18.6135C10.4107 18.7538 10.471 18.8751 10.5727 18.9622C10.682 19.0558 10.8318 19.104 11.0003 19.104C11.1688 19.104 11.3185 19.0558 11.4278 18.9622C11.5304 18.8743 11.5909 18.7517 11.5993 18.6099C12.4431 18.3699 13.1003 17.7112 13.1003 16.8626C13.1003 15.8512 12.1404 15.0495 11.0003 15.0495Z" fill="#8895A7" stroke="#8895A7" stroke-width="0.2"/>
</svg>
