<svg width="26" height="26" viewBox="0 0 26 26" fill="none" xmlns="http://www.w3.org/2000/svg">
<path d="M12.9992 14.4085C12.8584 14.4085 12.7175 14.376 12.5875 14.3001L3.0217 8.7643C2.64253 8.5368 2.5017 8.03846 2.7292 7.64846C2.9567 7.25846 3.45503 7.12846 3.84503 7.35596L12.9992 12.6535L22.0992 7.38846C22.4892 7.16096 22.9875 7.3018 23.215 7.68096C23.4425 8.07096 23.3017 8.5693 22.9225 8.7968L13.4217 14.3001C13.2809 14.3651 13.14 14.4085 12.9992 14.4085Z" fill="#8895A7"/>
<path d="M13 24.2233C12.5558 24.2233 12.1875 23.855 12.1875 23.4108V13.585C12.1875 13.1408 12.5558 12.7725 13 12.7725C13.4442 12.7725 13.8125 13.1408 13.8125 13.585V23.4108C13.8125 23.855 13.4442 24.2233 13 24.2233Z" fill="#8895A7"/>
<path d="M13.0007 24.6458C12.0473 24.6458 11.1048 24.44 10.3574 24.0283L4.57234 20.8108C3.00151 19.9441 1.77734 17.8533 1.77734 16.055V9.93413C1.77734 8.13579 3.00151 6.05579 4.57234 5.17829L10.3574 1.97163C11.8415 1.14829 14.1598 1.14829 15.644 1.97163L21.429 5.18913C22.9998 6.05579 24.224 8.14663 24.224 9.94496V16.0658C24.224 17.8641 22.9998 19.9441 21.429 20.8216L15.644 24.0283C14.8965 24.44 13.954 24.6458 13.0007 24.6458ZM13.0007 2.97913C12.3182 2.97913 11.6465 3.11996 11.1482 3.39079L5.36318 6.60829C4.32318 7.18246 3.40235 8.74246 3.40235 9.93413V16.055C3.40235 17.2466 4.32318 18.8066 5.36318 19.3916L11.1482 22.6091C12.134 23.1616 13.8673 23.1616 14.8532 22.6091L20.6382 19.3916C21.6782 18.8066 22.599 17.2575 22.599 16.055V9.93413C22.599 8.74246 21.6782 7.18246 20.6382 6.59746L14.8532 3.37996C14.3548 3.11996 13.6832 2.97913 13.0007 2.97913Z" fill="#8895A7"/>
</svg>
