<svg width="25" height="24" viewBox="0 0 25 24" fill="none" xmlns="http://www.w3.org/2000/svg">
<path d="M24.5718 9.32876L24.061 3.82887C23.9432 2.21779 22.6075 1 20.9967 1H4.57511C2.96432 1 1.62866 2.21779 1.5108 3.82859L1 9.32848V9.36767C1 11.2533 2.53215 12.7463 4.3786 12.7463C5.55725 12.7463 6.57855 12.1571 7.16805 11.2533C7.79669 12.1568 8.81806 12.7463 9.9575 12.7463C11.0967 12.7463 12.1574 12.1571 12.7469 11.2533C13.3756 12.1568 14.397 12.7463 15.5364 12.7463C16.6755 12.7463 17.7363 12.1571 18.3258 11.2533C18.9545 12.1568 19.9759 12.7463 21.1153 12.7463C23.001 12.7463 24.4939 11.2141 24.4939 9.36767C24.5717 9.36794 24.5717 9.32875 24.5717 9.32875L24.5718 9.32876ZM21.1932 11.5679C19.9754 11.5679 18.9932 10.5858 18.9932 9.36798C18.9932 9.05365 18.7181 8.7788 18.4041 8.7788C18.0897 8.7788 17.8149 9.05393 17.8149 9.36798C17.8149 10.5858 16.8327 11.5679 15.6149 11.5679C14.3971 11.5679 13.415 10.5858 13.415 9.36798C13.415 9.05365 13.1399 8.7788 12.8258 8.7788C12.5115 8.7788 12.2366 9.05393 12.2366 9.36798C12.2366 10.5858 11.2545 11.5679 10.0367 11.5679C8.81889 11.5679 7.83674 10.5858 7.83674 9.36798C7.83674 9.05365 7.5616 8.7788 7.24756 8.7788C6.93324 8.7788 6.65838 9.05393 6.65838 9.36798C6.65838 10.5858 5.67623 11.5679 4.45843 11.5679C3.24064 11.5679 2.25849 10.5858 2.25849 9.36798L2.76929 3.86808C2.84794 2.88594 3.6728 2.13943 4.65495 2.13943H21.0765C22.0587 2.13943 22.8838 2.88594 22.9622 3.86808L23.473 9.36798C23.3935 10.625 22.4113 11.5679 21.1935 11.5679H21.1932ZM22.0183 21.8215H12.2754V15.693C12.2754 15.3787 12.0003 15.1038 11.6862 15.1038H6.57897C6.26465 15.1038 5.98979 15.379 5.98979 15.693V21.8215H3.55413L3.55385 13.4536C3.12169 13.375 2.7287 13.218 2.3752 13.0215V22.4108C2.3752 22.7251 2.65034 23 2.96438 23H22.6074C22.9217 23 23.1966 22.7249 23.1966 22.4108L23.1968 13.0215C22.8433 13.218 22.4503 13.375 22.0182 13.4536L22.0183 21.8215ZM7.16822 16.2822H11.0968V21.8215H7.16822V16.2822Z" fill="#8895A7" stroke="#8895A7" stroke-width="0.2"/>
</svg>
