<svg width="24" height="24" viewBox="0 0 24 24" fill="none" xmlns="http://www.w3.org/2000/svg">
<path d="M3.73396 15.2779L8.72224 20.2663C9.19206 20.736 9.82939 21 10.4938 21C11.1581 21 11.7952 20.736 12.265 20.2663L19.5595 12.9717C19.8412 12.6897 19.9996 12.3075 20 11.909V4H12.0914C11.6928 4.00009 11.3105 4.15856 11.0287 4.44048L3.73396 11.7351C3.50124 11.9676 3.3166 12.2438 3.19064 12.5477C3.06469 12.8517 3 13.1774 3 13.5064C3 13.8354 3.06469 14.1613 3.19064 14.4653C3.3166 14.7692 3.50124 15.0454 3.73396 15.2779Z" stroke="#0DB9E9" stroke-width="1.5" stroke-linecap="round" stroke-linejoin="round"/>
<path d="M15.122 10.0612C15.6799 10.0612 16.1322 9.60889 16.1322 9.05097C16.1322 8.49305 15.6799 8.04077 15.122 8.04077C14.5641 8.04077 14.1118 8.49305 14.1118 9.05097C14.1118 9.60889 14.5641 10.0612 15.122 10.0612Z" stroke="#0DB9E9" stroke-linecap="round" stroke-linejoin="round"/>
</svg>
