<svg width="105" height="104" viewBox="0 0 105 104" fill="none" xmlns="http://www.w3.org/2000/svg">
<circle cx="52.5" cy="52" r="52" fill="#F2FAFC"/>
<path d="M52.258 54.8884C51.9952 54.8884 51.7324 54.8277 51.4898 54.6862L33.6385 44.3555C32.9309 43.931 32.6681 43.001 33.0927 42.2732C33.5172 41.5454 34.4472 41.3028 35.175 41.7273L52.258 51.6133L69.24 41.788C69.9678 41.3634 70.8978 41.6263 71.3223 42.3338C71.7469 43.0616 71.4841 43.9916 70.7765 44.4162L53.0465 54.6862C52.7837 54.8075 52.5208 54.8884 52.258 54.8884Z" fill="#0DB9E9"/>
<path d="M52.2599 73.2045C51.431 73.2045 50.7437 72.5171 50.7437 71.6882V53.3517C50.7437 52.5228 51.431 51.8354 52.2599 51.8354C53.0888 51.8354 53.7762 52.5228 53.7762 53.3517V71.6882C53.7762 72.5171 53.0888 73.2045 52.2599 73.2045Z" fill="#0DB9E9"/>
<path d="M52.2613 73.9929C50.4823 73.9929 48.7234 73.6088 47.3285 72.8406L36.5328 66.8362C33.6014 65.2189 31.3169 61.3171 31.3169 57.9611V46.5387C31.3169 43.1827 33.6014 39.3011 36.5328 37.6636L47.3285 31.6794C50.0981 30.143 54.4245 30.143 57.1942 31.6794L67.9899 37.6838C70.9213 39.3011 73.2058 43.203 73.2058 46.5589V57.9813C73.2058 61.3373 70.9213 65.2189 67.9899 66.8564L57.1942 72.8406C55.7992 73.6088 54.0404 73.9929 52.2613 73.9929ZM52.2613 33.5596C50.9877 33.5596 49.7342 33.8224 48.8043 34.3278L38.0086 40.3322C36.0678 41.4037 34.3494 44.3149 34.3494 46.5387V57.9611C34.3494 60.1849 36.0678 63.0961 38.0086 64.1879L48.8043 70.1922C50.644 71.2233 53.8787 71.2233 55.7184 70.1922L66.5141 64.1879C68.4549 63.0961 70.1733 60.2052 70.1733 57.9611V46.5387C70.1733 44.3149 68.4549 41.4037 66.5141 40.312L55.7184 34.3076C54.7884 33.8224 53.535 33.5596 52.2613 33.5596Z" fill="#0DB9E9"/>
</svg>
