<svg width="20" height="14" viewBox="0 0 20 14" fill="none" xmlns="http://www.w3.org/2000/svg">
<path d="M18.8589 6.85518C18.103 8.59466 16.8555 10.0753 15.2695 11.1154C13.6835 12.1555 11.828 12.7097 9.9314 12.7097C8.03476 12.7097 6.17952 12.1555 4.59351 11.1154C3.00749 10.0753 1.75981 8.59466 1.00391 6.85518M10.928 1.0542C10.5959 1.01807 10.262 0.999844 9.92798 1C8.0432 1.05179 6.20999 1.62714 4.6333 2.66113C3.05662 3.69513 1.79864 5.14698 1 6.85498M18.8599 6.85494C17.6781 4.44015 15.6339 2.55638 13.1309 1.57516M12.422 6.85511C12.422 8.2303 11.3071 9.34511 9.93196 9.34511C8.55677 9.34511 7.44196 8.2303 7.44196 6.85511C7.44196 5.47992 8.55677 4.36511 9.93196 4.36511C11.3071 4.36511 12.422 5.47992 12.422 6.85511Z" stroke="#0DB9E9" stroke-width="1.5" stroke-linecap="round" stroke-linejoin="round"/>
</svg>
